<svg width="42" height="42" viewBox="0 0 42 42" fill="none" xmlns="http://www.w3.org/2000/svg">
<path d="M17.633 19.25C18.683 19.25 19.5335 20.0375 19.5142 21C19.5142 21.9625 18.6848 22.75 17.633 22.75C16.6005 22.75 15.75 21.9625 15.75 21C15.75 20.0375 16.5813 19.25 17.633 19.25ZM24.367 19.25C25.4187 19.25 26.25 20.0375 26.25 21C26.25 21.9625 25.4187 22.75 24.367 22.75C23.3345 22.75 22.4858 21.9625 22.4858 21C22.4858 20.0375 23.3153 19.25 24.367 19.25ZM33.0593 3.5C35.0945 3.5 36.75 5.1905 36.75 7.28525V40.25L32.8807 36.7587L30.702 34.7008L28.3972 32.5133L29.3528 35.9135H8.94075C6.9055 35.9135 5.25 34.223 5.25 32.1282V7.28525C5.25 5.1905 6.9055 3.5 8.94075 3.5H33.0575H33.0593ZM26.1117 27.4978C30.0895 27.37 31.6208 24.7048 31.6208 24.7048C31.6208 18.788 29.0273 13.9913 29.0273 13.9913C26.4373 12.0085 23.9697 12.0627 23.9697 12.0627L23.7178 12.3567C26.7785 13.3123 28.1995 14.6913 28.1995 14.6913C26.5284 13.7497 24.6866 13.1501 22.7815 12.9272C21.573 12.7908 20.3524 12.8025 19.1467 12.9622C19.0382 12.9622 18.9472 12.9815 18.8405 12.999C18.2105 13.055 16.6792 13.293 14.7542 14.1575C14.0892 14.469 13.692 14.6913 13.692 14.6913C13.692 14.6913 15.1865 13.2388 18.4258 12.2832L18.2455 12.0627C18.2455 12.0627 15.7797 12.0085 13.188 13.993C13.188 13.993 10.5962 18.788 10.5962 24.7048C10.5962 24.7048 12.1083 27.3682 16.086 27.4978C16.086 27.4978 16.751 26.6717 17.2935 25.9735C15.0062 25.2735 14.1435 23.8035 14.1435 23.8035C14.1435 23.8035 14.322 23.933 14.6458 24.1168C14.6633 24.1343 14.6807 24.1535 14.7175 24.171C14.7717 24.2095 14.826 24.227 14.8803 24.2638C15.33 24.521 15.7798 24.7222 16.1928 24.8885C16.9313 25.1825 17.8132 25.4765 18.8405 25.6795C20.3793 25.9811 21.9615 25.9871 23.5025 25.697C24.4001 25.5368 25.2758 25.2719 26.1117 24.9077C26.7417 24.668 27.4435 24.318 28.182 23.8228C28.182 23.8228 27.2825 25.3295 24.9235 26.0103C25.4642 26.7085 26.1135 27.4978 26.1135 27.4978H26.1117Z" fill="white"/>
</svg>
