<svg width="42" height="42" viewBox="0 0 42 42" fill="none" xmlns="http://www.w3.org/2000/svg">
<path d="M21 3.5C11.3313 3.5 3.5 11.3312 3.5 21C3.49802 24.6737 4.65293 28.2548 6.80088 31.2352C8.94883 34.2156 11.9808 36.4439 15.4665 37.604C16.3415 37.7562 16.6688 37.2312 16.6688 36.771C16.6688 36.3562 16.646 34.979 16.646 33.5125C12.25 34.3227 11.1125 32.4415 10.7625 31.4562C10.5648 30.9522 9.7125 29.4 8.96875 28.9835C8.35625 28.6562 7.48125 27.846 8.946 27.825C10.325 27.8022 11.3085 29.0937 11.6375 29.6187C13.2125 32.2647 15.729 31.521 16.7335 31.0625C16.8875 29.925 17.346 29.1602 17.85 28.7227C13.9563 28.2852 9.8875 26.775 9.8875 20.0812C9.8875 18.1772 10.5648 16.604 11.6813 15.3772C11.5063 14.9397 10.8938 13.146 11.8563 10.7397C11.8563 10.7397 13.321 10.2812 16.6688 12.5352C18.0934 12.1399 19.5653 11.9409 21.0438 11.9437C22.5313 11.9437 24.0188 12.1397 25.4188 12.5335C28.7648 10.2585 30.2313 10.7415 30.2313 10.7415C31.1938 13.1477 30.5813 14.9415 30.4063 15.379C31.521 16.604 32.2 18.1562 32.2 20.0812C32.2 26.7977 28.1103 28.2852 24.2165 28.7227C24.85 29.2687 25.3978 30.3187 25.3978 31.9602C25.3978 34.3 25.375 36.1812 25.375 36.7727C25.375 37.2312 25.704 37.7772 26.579 37.6022C30.0528 36.4294 33.0714 34.1967 35.2098 31.2185C37.3483 28.2403 38.499 24.6665 38.5 21C38.5 11.3312 30.6688 3.5 21 3.5Z" fill="white"/>
</svg>
