<svg width="42" height="42" viewBox="0 0 42 42" fill="none" xmlns="http://www.w3.org/2000/svg">
<path d="M21 38.5C11.3348 38.5 3.5 30.6652 3.5 21C3.5 11.3348 11.3348 3.5 21 3.5C30.6652 3.5 38.5 11.3348 38.5 21C38.5 30.6652 30.6652 38.5 21 38.5ZM32.6725 21C32.6545 20.5074 32.4944 20.0305 32.2115 19.6269C31.9286 19.2232 31.5349 18.9101 31.078 18.7251C30.6211 18.5401 30.1205 18.4912 29.6364 18.5844C29.1524 18.6775 28.7056 18.9087 28.35 19.25C26.3592 17.8968 24.0191 17.1491 21.6125 17.0975L22.75 11.6375L26.495 12.425C26.5395 12.8388 26.7301 13.2233 27.0325 13.5093C27.3349 13.7953 27.7294 13.9641 28.145 13.9855C28.5607 14.0069 28.9704 13.8794 29.3006 13.626C29.6308 13.3725 29.8598 13.0097 29.9465 12.6026C30.0333 12.1955 29.9721 11.7708 29.774 11.4048C29.5758 11.0387 29.2537 10.7553 28.8654 10.6053C28.4771 10.4554 28.0481 10.4487 27.6554 10.5866C27.2626 10.7244 26.9319 10.9978 26.7225 11.3575L22.435 10.5C22.3649 10.4846 22.2924 10.4833 22.2218 10.4961C22.1511 10.509 22.0838 10.5357 22.0235 10.5748C21.9633 10.6138 21.9114 10.6645 21.8709 10.7237C21.8304 10.783 21.802 10.8497 21.7875 10.92L20.4925 16.9925C18.0563 17.0292 15.684 17.7774 13.6675 19.145C13.3977 18.8912 13.076 18.699 12.7246 18.5819C12.3731 18.4648 12.0005 18.4255 11.6323 18.4667C11.2642 18.5079 10.9095 18.6287 10.5927 18.8206C10.2759 19.0126 10.0046 19.2711 9.79763 19.5783C9.59067 19.8856 9.45299 20.2341 9.39413 20.5998C9.33527 20.9655 9.35663 21.3397 9.45674 21.6963C9.55685 22.0529 9.7333 22.3835 9.97388 22.6652C10.2145 22.9469 10.5134 23.1729 10.85 23.3275C10.8303 23.5838 10.8303 23.8412 10.85 24.0975C10.85 28.0175 15.4175 31.2025 21.0525 31.2025C26.6875 31.2025 31.255 28.0175 31.255 24.0975C31.2747 23.8412 31.2747 23.5838 31.255 23.3275C31.6868 23.1129 32.0491 22.7804 32.3 22.3685C32.5508 21.9566 32.68 21.4822 32.6725 21ZM15.1725 22.75C15.1725 22.2859 15.3569 21.8408 15.6851 21.5126C16.0133 21.1844 16.4584 21 16.9225 21C17.3866 21 17.8317 21.1844 18.1599 21.5126C18.4881 21.8408 18.6725 22.2859 18.6725 22.75C18.6725 23.2141 18.4881 23.6592 18.1599 23.9874C17.8317 24.3156 17.3866 24.5 16.9225 24.5C16.4584 24.5 16.0133 24.3156 15.6851 23.9874C15.3569 23.6592 15.1725 23.2141 15.1725 22.75ZM25.34 27.5625C24.0984 28.4981 22.5708 28.9744 21.0175 28.91C19.4642 28.9744 17.9366 28.4981 16.695 27.5625C16.6206 27.4718 16.5826 27.3567 16.5883 27.2396C16.5941 27.1224 16.6432 27.0116 16.7261 26.9286C16.8091 26.8457 16.9199 26.7966 17.0371 26.7908C17.1542 26.7851 17.2693 26.8231 17.36 26.8975C18.4122 27.6692 19.6965 28.0582 21 28C22.3051 28.071 23.5954 27.6944 24.6575 26.9325C24.7023 26.8824 24.7568 26.842 24.8179 26.8139C24.8789 26.7857 24.9451 26.7704 25.0123 26.769C25.0794 26.7675 25.1462 26.7798 25.2084 26.8053C25.2706 26.8307 25.3269 26.8687 25.3739 26.9168C25.4208 26.9649 25.4573 27.0221 25.4811 27.085C25.505 27.1478 25.5156 27.2149 25.5125 27.282C25.5093 27.3491 25.4923 27.4149 25.4627 27.4752C25.433 27.5355 25.3912 27.589 25.34 27.6325V27.5625ZM25.025 24.57C24.6789 24.57 24.3405 24.4674 24.0528 24.2751C23.765 24.0828 23.5407 23.8095 23.4082 23.4897C23.2758 23.1699 23.2411 22.8181 23.3086 22.4786C23.3762 22.1391 23.5428 21.8273 23.7876 21.5826C24.0323 21.3378 24.3441 21.1712 24.6836 21.1036C25.0231 21.0361 25.3749 21.0708 25.6947 21.2032C26.0145 21.3357 26.2878 21.56 26.4801 21.8478C26.6724 22.1355 26.775 22.4739 26.775 22.82C26.7845 23.0571 26.7457 23.2937 26.6609 23.5153C26.5761 23.737 26.4471 23.9391 26.2818 24.1093C26.1165 24.2795 25.9183 24.4144 25.6992 24.5056C25.4801 24.5968 25.2448 24.6426 25.0075 24.64L25.025 24.57Z" fill="white"/>
</svg>
