<svg width="42" height="42" viewBox="0 0 42 42" fill="none" xmlns="http://www.w3.org/2000/svg">
<path d="M3.50702 38.5L5.87302 29.806C4.31401 27.1335 3.49494 24.094 3.50002 21C3.50002 11.3348 11.3348 3.5 21 3.5C30.6653 3.5 38.5 11.3348 38.5 21C38.5 30.6652 30.6653 38.5 21 38.5C17.9074 38.505 14.8692 37.6865 12.1975 36.1287L3.50702 38.5ZM14.6843 12.789C14.4583 12.803 14.2375 12.8626 14.035 12.964C13.8452 13.0715 13.6719 13.2059 13.5205 13.363C13.3105 13.5608 13.1915 13.7323 13.0638 13.8985C12.417 14.7402 12.0691 15.7735 12.075 16.835C12.0785 17.6925 12.3025 18.5273 12.6525 19.3077C13.3683 20.8862 14.546 22.5575 16.1018 24.1062C16.4763 24.479 16.842 24.8535 17.2358 25.2017C19.1667 26.9018 21.4677 28.1278 23.9558 28.7823L24.9515 28.9345C25.2753 28.952 25.599 28.9275 25.9245 28.9118C26.4342 28.8854 26.9318 28.7474 27.3823 28.5075C27.6728 28.3535 27.8093 28.2765 28.0525 28.1225C28.0525 28.1225 28.1278 28.0735 28.2713 27.965C28.5075 27.79 28.6528 27.6658 28.8488 27.461C28.994 27.3105 29.12 27.1338 29.2163 26.9325C29.3528 26.6473 29.4893 26.103 29.5453 25.6497C29.5873 25.3032 29.575 25.1143 29.5698 24.997C29.5628 24.8098 29.407 24.6155 29.2373 24.5333L28.2188 24.0765C28.2188 24.0765 26.6963 23.4132 25.767 22.9897C25.669 22.947 25.564 22.9227 25.4573 22.918C25.3375 22.9057 25.2166 22.9192 25.1025 22.9575C24.9884 22.9958 24.8838 23.0582 24.7958 23.1402V23.1367C24.787 23.1367 24.6698 23.2365 23.4045 24.7695C23.3319 24.8671 23.2319 24.9408 23.1172 24.9813C23.0025 25.0219 22.8783 25.0273 22.7605 24.997C22.6465 24.9665 22.5348 24.9279 22.4263 24.8815C22.2093 24.7905 22.134 24.7555 21.9853 24.6908L21.9765 24.6873C20.9754 24.2501 20.0484 23.6597 19.229 22.9373C19.0085 22.7448 18.8038 22.5347 18.5938 22.3317C17.9053 21.6724 17.3053 20.9265 16.8088 20.1128L16.7055 19.9465C16.6314 19.8348 16.5714 19.7143 16.527 19.5877C16.4605 19.3305 16.6338 19.124 16.6338 19.124C16.6338 19.124 17.059 18.6585 17.2568 18.4065C17.4214 18.1971 17.5751 17.9792 17.717 17.7538C17.9235 17.4213 17.9883 17.08 17.8798 16.8158C17.3898 15.6188 16.8823 14.427 16.3608 13.244C16.2575 13.0095 15.9513 12.8415 15.673 12.8082C15.5785 12.7977 15.484 12.7872 15.3895 12.7802C15.1545 12.7686 14.919 12.7709 14.6843 12.7873V12.789Z" fill="white"/>
</svg>
