<svg width="46" height="46" viewBox="0 0 46 46" fill="none" xmlns="http://www.w3.org/2000/svg">
<path d="M23.0002 42.1668C12.4144 42.1668 3.8335 33.5859 3.8335 23.0002C3.8335 12.4144 12.4144 3.8335 23.0002 3.8335C33.5859 3.8335 42.1668 12.4144 42.1668 23.0002C42.1668 33.5859 33.5859 42.1668 23.0002 42.1668ZM13.4417 34.9908C16.1549 37.1599 19.5265 38.339 23.0002 38.3335C26.776 38.3335 30.2317 36.9688 32.9036 34.7072C31.6553 33.4263 30.1628 32.4089 28.5145 31.7149C26.8661 31.0209 25.0953 30.6645 23.3068 30.6668C21.4526 30.6647 19.6182 31.048 17.92 31.7923C16.2217 32.5367 14.6967 33.6259 13.4417 34.9908ZM10.7642 32.2385C12.375 30.529 14.3189 29.1674 16.4761 28.2379C18.6332 27.3083 20.9579 26.8304 23.3068 26.8335C25.5717 26.8305 27.8148 27.275 29.9073 28.1414C31.9999 29.0078 33.9007 30.279 35.5007 31.882C37.1415 29.5727 38.1105 26.8539 38.3001 24.0273C38.4897 21.2008 37.8926 18.3769 36.5749 15.8691C35.2573 13.3613 33.2707 11.2675 30.8354 9.8201C28.4002 8.37267 25.6116 7.62819 22.779 7.66923C19.9464 7.71027 17.1805 8.53524 14.7882 10.0526C12.396 11.57 10.4708 13.7204 9.22641 16.2654C7.98198 18.8103 7.46691 21.6503 7.73835 24.4701C8.00979 27.29 9.05713 29.9796 10.7642 32.2404V32.2385ZM23.0002 24.9168C20.9668 24.9168 19.0168 24.1091 17.579 22.6713C16.1412 21.2335 15.3335 19.2835 15.3335 17.2502C15.3335 15.2168 16.1412 13.2668 17.579 11.829C19.0168 10.3912 20.9668 9.5835 23.0002 9.5835C25.0335 9.5835 26.9835 10.3912 28.4213 11.829C29.8591 13.2668 30.6668 15.2168 30.6668 17.2502C30.6668 19.2835 29.8591 21.2335 28.4213 22.6713C26.9835 24.1091 25.0335 24.9168 23.0002 24.9168ZM23.0002 21.0835C24.0168 21.0835 24.9918 20.6796 25.7107 19.9607C26.4296 19.2418 26.8335 18.2668 26.8335 17.2502C26.8335 16.2335 26.4296 15.2585 25.7107 14.5396C24.9918 13.8207 24.0168 13.4168 23.0002 13.4168C21.9835 13.4168 21.0085 13.8207 20.2896 14.5396C19.5707 15.2585 19.1668 16.2335 19.1668 17.2502C19.1668 18.2668 19.5707 19.2418 20.2896 19.9607C21.0085 20.6796 21.9835 21.0835 23.0002 21.0835Z" fill="#8F8A9A"/>
</svg>
