<svg width="57" height="57" viewBox="0 0 57 57" fill="none" xmlns="http://www.w3.org/2000/svg">
<path d="M44.5576 13.8792L46.426 13.3786L51.3558 31.7767L49.4873 32.2774L50.9663 37.7968C51.097 38.2848 51.0255 38.8055 50.7676 39.2444C50.5096 39.6834 50.0863 40.0045 49.5907 40.1373L15.9579 49.1492C15.4623 49.282 14.9351 49.2155 14.4923 48.9644C14.0494 48.7132 13.7272 48.298 13.5964 47.8101L5.7088 18.373C5.57805 17.8851 5.64952 17.3644 5.90748 16.9254C6.16544 16.4865 6.58876 16.1653 7.08431 16.0325L40.7172 7.02065C41.2127 6.88787 41.7399 6.95436 42.1828 7.2055C42.6256 7.45664 42.9479 7.87185 43.0786 8.3598L44.5576 13.8792ZM45.7503 33.2787L34.5394 36.2827C32.0616 36.9466 29.4256 36.6141 27.2113 35.3584C24.997 34.1027 23.3858 32.0267 22.7321 29.5869C22.0783 27.1472 22.4357 24.5436 23.7255 22.349C25.0153 20.1544 27.1318 18.5485 29.6096 17.8845L40.8206 14.8806L39.8346 11.2009L9.93876 19.2115L16.8404 44.9689L46.7363 36.9584L45.7503 33.2787ZM46.6329 29.0984L43.675 18.0595L30.5956 21.5642C29.1089 21.9625 27.839 22.9261 27.0651 24.2428C26.2912 25.5596 26.0768 27.1217 26.469 28.5856C26.8613 30.0494 27.828 31.2951 29.1566 32.0485C30.4852 32.8019 32.0668 33.0014 33.5534 32.6031L46.6329 29.0984ZM31.5815 25.2438L37.187 23.7418L38.173 27.4214L32.5675 28.9234L31.5815 25.2438Z" fill="#8F8A9A"/>
</svg>
